<?xml version="1.0" encoding="UTF-8"?><svg id="_レイヤー_1" xmlns="http://www.w3.org/2000/svg" viewBox="0 0 425.2 425.2"><defs><style>.cls-1{fill:#fff;}.cls-2{fill:#404040;}</style></defs><rect class="cls-1" width="425.2" height="425.2"/><g><path class="cls-2" d="m89.82,187.1h10.83l-14.36,51h-10.17l-6.16-29.83-1.8-9.86-1.8,9.86-6.16,29.83h-9.9l-14.46-51h11.32l6.75,29.2,1.45,8.13,1.49-7.96,5.74-29.38h11.25l6.05,29.2,1.56,8.13,1.56-7.82,6.82-29.52Z"/><path class="cls-2" d="m143.97,227.62h-18.79l-3.53,10.48h-11.14l18.2-51h12.04l18.06,51h-11.56l-3.29-10.48Zm-2.98-8.79l-6.37-20.07-6.57,20.07h12.94Z"/><path class="cls-2" d="m214.75,187.1l-17.06,31.83v19.17h-10.66v-19.17l-17.65-31.83h12.56l10.59,22.21,10.14-22.21h12.08Z"/><path class="cls-2" d="m265.13,58.32h-25.57v11.73h22.39v8.86h-22.39v21.38h-7.13l-3.46-3.46v-47.48h32.7l3.46,3.46v5.5Z"/><path class="cls-2" d="m241.76,119.64l10.59,10.59v164.73l-10.59,10.59V119.64Z"/><path class="cls-2" d="m267.76,369.75l-6.12,6.12h-4.53l-20.83-36.23v36.23h-9.93v-44.88l6.12-6.12h5.05l20.31,35.61v-35.61h9.93v44.88Z"/><path class="cls-2" d="m303.98,319.34h-21.97v-44.02l6.99-6.99h14.98c3.16.05,5.79.42,7.89,1.11,3.58,1.18,6.47,3.33,8.69,6.47,1.78,2.54,2.99,5.28,3.63,8.24.65,2.95.97,5.77.97,8.44,0,6.78-1.36,12.53-4.08,17.23-3.69,6.34-9.39,9.52-17.09,9.52Zm7.92-37.99c-1.64-2.77-4.88-4.15-9.72-4.15h-9.83v33.29h9.83c5.03,0,8.54-2.48,10.52-7.44,1.08-2.72,1.63-5.96,1.63-9.72,0-5.19-.81-9.18-2.42-11.97Z"/><path class="cls-2" d="m295.82,173.7l10.59,10.59v56.62l-10.59,10.59v-77.8Z"/><path class="cls-2" d="m321.82,154.39h-10.66l-20.83-36.23v36.23h-3.81l-6.12-6.12v-44.88h11.18l20.31,35.61v-35.61h3.81l6.12,6.12v44.88Z"/><path class="cls-2" d="m371.16,236.84c-2.81,1.73-6.28,2.6-10.38,2.6-6.76,0-12.3-2.34-16.61-7.02-3.27-3.42-5.35-7.75-6.24-13l6.81-6.81-6.67-6.67c.97-5.01,3.02-9.24,6.17-12.69,4.54-4.98,10.55-7.47,18.03-7.47,6.48,0,11.69,1.64,15.62,4.93,3.93,3.29,6.19,7.39,6.76,12.3h-10.48c-.81-3.48-2.78-5.92-5.92-7.3-1.75-.76-3.7-1.14-5.85-1.14-4.11,0-7.48,1.55-10.12,4.65-2.64,3.1-3.96,7.77-3.96,14s1.43,10.72,4.29,13.32,6.11,3.91,9.76,3.91,6.5-1.03,8.79-3.1c2.28-2.06,3.69-4.77,4.22-8.11h-11.8v-8.51h21.25v27.37h-7.06l-1.07-6.37c-2.05,2.42-3.9,4.13-5.54,5.12Z"/></g></svg>